<?xml version="1.0" standalone="no"?><!-- Generator: Gravit.io --><svg xmlns="http://www.w3.org/2000/svg" xmlns:xlink="http://www.w3.org/1999/xlink" style="isolation:isolate" width="227.4" height="271.8"><path d=" M 207.93516710085117 107.00979935612446 L 193.79019362274278 109.94979384362102 C 192.87519533836883 110.14479347799579 192.03519691336982 109.4547947717466 192.03519691336982 108.52479651549771 L 192.03519691336982 108.0297974436233 C 192.03519691336982 107.21979896237428 191.37519815087057 106.57480017174998 190.56519966962156 106.57480017174998 L 120.56033092907865 106.57480017174998 C 119.61533270095475 106.57480017174998 118.91033402283057 105.67480185925109 119.13533360095533 104.75980357487714 C 119.16533354470528 104.63980379987726 119.18033351658028 104.51980402487743 119.18033351658028 104.39980424987755 C 119.18033351658028 103.60480574050348 118.50533478220609 102.91480703425424 117.65033638533203 102.95980694987918 L 43.08547619479441 105.74980171862597 C 43.809974836356076 104.25880451425269 55.94045209165435 102.76930730706698 59.65294513071248 101.27981009988122 C 60.282943949461725 101.02481057800651 60.96244267539842 100.90481080300663 61.64344139852264 100.8718108648817 L 122.24332777345165 96.29381944863707 C 116.1293392372088 94.06482362801472 62.637939533833986 96.91331828707388 63.392438119145595 95.51982089988797 C 91.41688557317525 43.669418119636305 132.71030814781432 0 132.71030814781432 0 C 132.71030814781432 0 180.24521901963362 50.2949056968161 207.93516710085117 107.00979935612457 M 227.35413069020342 177.17216780135476 C 227.35413069020342 219.06708924818068 200.12918173711034 254.617022591889 162.4042524715295 267.06699924812443 C 153.0592699934155 270.15699345437076 143.08428869655216 271.82199033249384 132.70430815906434 271.82199033249384 C 122.32432762157646 271.82199033249384 112.34934632471317 270.15699345437076 103.00436384659912 267.06699924812443 C 79.30440828412685 259.2520139012586 59.7444449591498 242.31704565440342 48.464466109163 220.4170867169291 C 43.544475334168766 210.83960467475285 40.1994816060477 200.31112441570266 38.79398424136184 189.1721453013407 C 37.9539858163628 182.51815777759847 35.30949077480341 155.29770881606788 31.587997752620282 147.12272414420244 C 28.576003400123795 140.5047365529602 23.350013198879907 138.48274034421257 18.61302208076046 136.74274360671467 C 14.735529351077531 135.3207462729663 0.5335559798441523 134.7372473670295 0.5335559798441523 134.7372473670295 C -0.5164420514046242 133.84774903484305 0.08355682359470507 132.13175225234505 1.4605542417180573 132.0927523254701 L 27.0235063110631 129.57575704484805 C 27.33850572043775 129.56675706172308 27.64450514668735 129.4587572642232 27.89350467981211 129.2652576270359 L 29.69950129356002 127.87776022860004 C 29.962000801372227 127.6767606054753 30.28450019668429 127.5672608107879 30.61449957793394 127.5672608107879 L 124.36432379657407 127.5672608107879 C 125.0843224465732 127.5672608107879 125.75932118094744 127.22976144360081 126.18832037657194 126.655262520789 C 127.17381852875832 125.34126498454049 128.72331562344397 124.5672664357914 130.36431254656708 124.5672664357914 L 207.6411676521015 124.5672664357914 C 208.070166847726 124.5672664357914 208.27116647085074 125.09826544016585 207.94716707835113 125.38026491141545 L 196.31918888086477 131.63225318890818 C 195.9996894799276 131.91275266297032 195.59019024774062 132.06725237328266 195.1641910464911 132.06725237328266 L 191.98419700899478 132.06725237328266 C 191.61669769805775 132.06725237328266 191.26119836462067 132.19775212859497 190.982198887746 132.43775167859474 L 161.8612534896551 134.45374789859233 L 199.07618371148652 135.06874674546663 C 199.73318247961072 135.06874674546663 200.32118137711007 135.48274596921618 200.54168096367232 136.1037448048404 L 202.66867697554483 140.60373636733516 C 202.90867652554454 141.28323509327186 203.36767566491903 141.8667339992087 203.9736745286683 142.26123325952068 L 223.83063729676996 152.31121441575885 C 224.29113643333199 152.61421384763355 224.61813582020653 153.088212958883 224.73063560926897 153.62671194919483 C 226.4181324452045 161.61869696418552 227.35563068739089 169.50868217042625 227.35563068739089 177.17366779854228" fill-rule="evenodd" fill="rgb(0,0,0)" stroke-width="1.499997187498242" stroke="rgba(0,0,0,0)" stroke-linejoin="miter" stroke-linecap="butt"/></svg>